<svg width="64" height="64" viewBox="0 0 64 64" fill="none" xmlns="http://www.w3.org/2000/svg">
<path d="M32 2C15.432 2 2 15.432 2 32c0 16.568 13.432 30 30 30 16.566 0 30-13.432 30-30C62 15.432 48.566 2 32 2Zm0 57.5C16.836 59.5 4.5 47.164 4.5 32S16.836 4.5 32 4.5c15.163 0 27.5 12.336 27.5 27.5S47.163 59.5 32 59.5Z" fill="currentColor"/>
<path d="M20.5 32.592a5 5 0 1 0 0-10 5 5 0 0 0 0 10ZM43.498 32.592a5 5 0 1 0 0-10 5 5 0 0 0 0 10ZM38.871 44H25.127c-1.504 0-1.504 4 0 4h13.744c1.504 0 1.504-4 0-4" fill="currentColor"/>
</svg>
